<mxfile host="app.diagrams.net" agent="Mozilla/5.0 (Macintosh; Intel Mac OS X 10_15_7) AppleWebKit/605.1.15 (KHTML, like Gecko) Version/18.1.1 Safari/605.1.15" version="25.0.3">
  <diagram name="Page-1" id="pvwVrU2Ky_9N1OxUDSoq">
    <mxGraphModel dx="984" dy="644" grid="1" gridSize="10" guides="1" tooltips="1" connect="1" arrows="1" fold="1" page="1" pageScale="1" pageWidth="827" pageHeight="1169" math="0" shadow="0">
      <root>
        <mxCell id="0" />
        <mxCell id="1" parent="0" />
        <mxCell id="qX7sRzLOkHeoFOzstgkA-9" value="Linear Regression" style="html=1;overflow=block;blockSpacing=1;whiteSpace=wrap;fontSize=16.7;spacing=3.8;strokeColor=#unset;rounded=1;absoluteArcSize=1;arcSize=9;fillColor=#unset;strokeWidth=NaN;lucidId=tUlzZQ0rR7q3;" vertex="1" parent="1">
          <mxGeometry x="315" y="90" width="120" height="60" as="geometry" />
        </mxCell>
        <mxCell id="qX7sRzLOkHeoFOzstgkA-10" value="Feature" style="html=1;overflow=block;blockSpacing=1;whiteSpace=wrap;ellipse;fontSize=16.7;spacing=3.8;strokeColor=#unset;rounded=1;absoluteArcSize=1;arcSize=9;fillColor=#unset;strokeWidth=NaN;lucidId=xUlzH13IV_X~;" vertex="1" parent="1">
          <mxGeometry x="720" y="165" width="60" height="60" as="geometry" />
        </mxCell>
        <mxCell id="qX7sRzLOkHeoFOzstgkA-11" value="Preprocessing (process)" style="html=1;overflow=block;blockSpacing=1;whiteSpace=wrap;rhombus;fontSize=16.7;spacing=3.8;strokeColor=#unset;rounded=1;absoluteArcSize=1;arcSize=9;fillColor=#unset;strokeWidth=NaN;lucidId=RVlzYOxM.Xo~;" vertex="1" parent="1">
          <mxGeometry x="615" y="286" width="120" height="90" as="geometry" />
        </mxCell>
        <mxCell id="qX7sRzLOkHeoFOzstgkA-12" value="Continoues Time Series (sequence-to-label)" style="html=1;overflow=block;blockSpacing=1;whiteSpace=wrap;shape=cylinder3;size=4;anchorPointDirection=0;boundedLbl=1;fontSize=16.7;spacing=3.8;strokeColor=#unset;rounded=1;absoluteArcSize=1;arcSize=9;fillColor=#unset;strokeWidth=NaN;lucidId=AXlzL4wqDmtS;" vertex="1" parent="1">
          <mxGeometry x="90" y="90" width="120" height="120" as="geometry" />
        </mxCell>
        <mxCell id="qX7sRzLOkHeoFOzstgkA-13" value="Time Domain" style="html=1;overflow=block;blockSpacing=1;whiteSpace=wrap;fontSize=23.3;fontStyle=1;spacing=0;strokeColor=#3a414a;strokeOpacity=100;fillOpacity=0;rounded=1;absoluteArcSize=1;arcSize=9;fillColor=#000000;strokeWidth=1.5;lucidId=a2lzPlyJABOO;" vertex="1" parent="1">
          <mxGeometry x="45" y="30" width="180" height="45" as="geometry" />
        </mxCell>
        <mxCell id="qX7sRzLOkHeoFOzstgkA-14" value="Equally Epoched Time Series" style="html=1;overflow=block;blockSpacing=1;whiteSpace=wrap;shape=cylinder3;size=4;anchorPointDirection=0;boundedLbl=1;fontSize=16.7;spacing=3.8;strokeColor=#unset;rounded=1;absoluteArcSize=1;arcSize=9;fillColor=#unset;strokeWidth=NaN;lucidId=V3lzgWcmkv5n;" vertex="1" parent="1">
          <mxGeometry x="90" y="225" width="120" height="120" as="geometry" />
        </mxCell>
        <mxCell id="qX7sRzLOkHeoFOzstgkA-15" value="Equally Sliding Windows Time Series" style="html=1;overflow=block;blockSpacing=1;whiteSpace=wrap;shape=cylinder3;size=4;anchorPointDirection=0;boundedLbl=1;fontSize=16.7;spacing=3.8;strokeColor=#unset;rounded=1;absoluteArcSize=1;arcSize=9;fillColor=#unset;strokeWidth=NaN;lucidId=-5lzNkiLlerd;" vertex="1" parent="1">
          <mxGeometry x="90" y="360" width="120" height="120" as="geometry" />
        </mxCell>
        <mxCell id="qX7sRzLOkHeoFOzstgkA-16" value="Future Horizons" style="html=1;overflow=block;blockSpacing=1;whiteSpace=wrap;fontSize=16.7;spacing=3.8;strokeColor=#unset;rounded=1;absoluteArcSize=1;arcSize=9;fillColor=#unset;strokeWidth=NaN;lucidId=w_lzcpIU6CJ1;" vertex="1" parent="1">
          <mxGeometry x="495" y="90" width="120" height="60" as="geometry" />
        </mxCell>
      </root>
    </mxGraphModel>
  </diagram>
</mxfile>
